<svg width="32" height="32" viewBox="0 0 32 32" fill="none" xmlns="http://www.w3.org/2000/svg">
<path d="M31.0001 9.60088V1H22.3827" stroke="#B1FFFA" stroke-width="2" stroke-linecap="round" stroke-linejoin="round"/>
<path d="M20.9464 11.0344L31 1" stroke="#B1FFFA" stroke-width="2" stroke-linecap="round" stroke-linejoin="round"/>
<path d="M29.5638 23.821V28.1214C29.5655 28.5207 29.4835 28.9158 29.3233 29.2816C29.1631 29.6474 28.928 29.9758 28.6333 30.2457C28.3385 30.5156 27.9906 30.721 27.6117 30.8489C27.2327 30.9768 26.8312 31.0243 26.4329 30.9884C22.0134 30.5091 17.7681 29.0018 14.0382 26.5876C10.5681 24.3867 7.62597 21.4503 5.42087 17.9867C2.99362 14.2471 1.48309 9.98935 1.01166 5.55847C0.975767 5.16207 1.02297 4.76255 1.15025 4.38535C1.27754 4.00815 1.48212 3.66154 1.75098 3.36757C2.01983 3.07361 2.34707 2.83875 2.71185 2.67793C3.07663 2.51711 3.47097 2.43386 3.86975 2.43349H8.17843C8.87544 2.42664 9.55116 2.67299 10.0797 3.12662C10.6081 3.58025 10.9533 4.21021 11.0509 4.89907C11.2327 6.27531 11.57 7.62659 12.0562 8.92715C12.2495 9.44023 12.2913 9.99784 12.1768 10.5339C12.0622 11.07 11.7961 11.562 11.4099 11.9518L9.58593 13.7723C11.6305 17.3611 14.6076 20.3326 18.2033 22.3732L20.0273 20.5527C20.4178 20.1673 20.9108 19.9017 21.4479 19.7873C21.985 19.673 22.5437 19.7147 23.0577 19.9076C24.3608 20.3929 25.7147 20.7295 27.0935 20.911C27.7912 21.0093 28.4284 21.36 28.8838 21.8966C29.3393 22.4331 29.5813 23.118 29.5638 23.821Z" stroke="#B1FFFA" stroke-width="2" stroke-linecap="round" stroke-linejoin="round"/>
</svg>
