<svg width="63" height="74" viewBox="0 0 63 74" fill="none" xmlns="http://www.w3.org/2000/svg">
<path d="M59.0319 22.6774H56.6472C54.6752 22.6774 53.0703 24.2839 53.0703 26.258V26.4621C51.6825 26.955 50.6857 28.2823 50.6857 29.8386V31.2363C50.6857 32.1923 51.0577 33.0923 51.7338 33.769L53.0107 35.0473L51.7254 45.9838C48.2391 40.3502 42.6114 36.2778 36.1014 34.7823L35.5685 33.1806C37.308 32.6996 38.7352 31.469 39.4494 29.8386H39.955C42.5852 29.8386 44.7242 27.6974 44.7242 25.0645V19.0967C46.0393 19.0967 47.1088 18.0261 47.1088 16.7096V14.3225C47.1088 13.006 46.0393 11.9354 44.7242 11.9354H44.5167C43.3769 5.06058 37.5024 -6.10352e-05 30.4165 -6.10352e-05C23.3306 -6.10352e-05 17.4562 5.06058 16.3163 11.9354H16.1088C14.7937 11.9354 13.7242 13.006 13.7242 14.3225V16.7096C13.7242 18.0261 14.7937 19.0967 16.1088 19.0967V25.0645C16.1088 27.6974 18.2478 29.8386 20.8781 29.8386H21.3836C22.099 31.469 23.5262 32.7008 25.2646 33.1806L24.7304 34.7835C22.0346 35.4018 19.4652 36.5452 17.1938 38.1135L14.845 30.8126C14.8378 30.7732 14.839 30.7338 14.8307 30.6944C14.2322 28.1796 10.6779 26.8643 6.71944 27.7046C4.2621 28.2262 2.20895 29.4663 1.22649 31.0191C0.664911 31.9071 0.481296 32.8524 0.695911 33.7547C0.818718 34.2727 1.07268 34.737 1.42441 35.144L9.59409 47.3934C8.39582 50.1505 7.76271 53.0687 7.76271 56.0967C7.76271 61.186 10.6767 65.5986 14.9165 67.7768V69.2257C14.9165 71.8587 17.0555 73.9999 19.6858 73.9999H23.2627H26.8396H45.9165V58.3728C47.6525 60.6752 50.3495 62.0645 53.31 62.0645C58.4369 62.0645 62.6088 57.8882 62.6088 52.7572V26.258C62.6088 24.2839 61.0039 22.6774 59.0319 22.6774V22.6774ZM53.0703 29.8386C53.0703 29.181 53.6045 28.6451 54.2626 28.6451H55.4549V26.258C55.4549 25.6004 55.9891 25.0645 56.6472 25.0645H59.0319C59.69 25.0645 60.2242 25.6004 60.2242 26.258V33.4193H54.7562L53.4197 32.0813C53.1943 31.8557 53.0703 31.555 53.0703 31.2363V29.8386ZM33.9934 69.2257V71.6128H30.9459C31.3561 70.9075 31.6088 70.0994 31.6088 69.2257H33.9934ZM35.1857 66.8387H28.0319V61.365L29.3685 60.0271C29.5914 59.8051 29.8979 59.6774 30.2114 59.6774H31.6088C32.267 59.6774 32.8011 60.2133 32.8011 60.8709V62.0645H35.1857C35.8439 62.0645 36.378 62.6004 36.378 63.258V65.6451C36.378 66.3027 35.8439 66.8387 35.1857 66.8387ZM33.1338 33.4193L33.8492 35.5677L30.4165 39.8633L26.9827 35.5665L27.6981 33.4181H33.1338V33.4193ZM26.9946 39.4026C26.9421 39.4014 26.8921 39.387 26.8396 39.387H19.6858C19.6738 39.387 19.6631 39.3906 19.6512 39.3906C21.3705 38.3666 23.24 37.6015 25.1918 37.1467L26.9946 39.4026ZM19.6858 41.7741H22.7106C22.3029 42.4771 22.0704 43.2923 22.0704 44.1612V45.3548H24.455V44.1612C24.455 42.8447 25.5245 41.7741 26.8396 41.7741C28.1547 41.7741 29.2242 42.8447 29.2242 44.1612C29.2242 45.4777 28.1547 46.5483 26.8396 46.5483H19.6858C18.3706 46.5483 17.3012 45.4777 17.3012 44.1612C17.3012 42.8447 18.3706 41.7741 19.6858 41.7741ZM17.3012 48.2718C18.0058 48.6824 18.813 48.9354 19.6858 48.9354H26.8396C27.7124 48.9354 28.5196 48.6824 29.2242 48.2718V57.4454C28.6495 57.6113 28.1166 57.9037 27.6826 58.3394L26.346 59.6774H22.0704C20.4011 59.6774 18.7689 59.2787 17.3012 58.5495V48.2718ZM33.9934 58.2153C33.3591 57.6447 32.5269 57.2903 31.6088 57.2903V44.1612C31.6088 43.5979 31.4932 43.0644 31.3131 42.5619L33.9934 39.2092V58.2153ZM39.955 27.4516V22.6774C41.2701 22.6774 42.3396 23.748 42.3396 25.0645C42.3396 26.3809 41.2701 27.4516 39.955 27.4516ZM42.3396 20.9539C41.6349 20.5433 40.8277 20.2903 39.955 20.2903V19.0967H42.3396V20.9539ZM42.0963 11.9354H33.9934V2.93368C38.089 4.20362 41.2307 7.60523 42.0963 11.9354ZM31.6088 2.44671V11.9354H29.2242V2.44671C29.6165 2.40852 30.0135 2.38704 30.4165 2.38704C30.8195 2.38704 31.2166 2.40852 31.6088 2.44671ZM26.8396 2.93368V11.9354H18.7367C19.6023 7.60523 22.744 4.20362 26.8396 2.93368V2.93368ZM16.1077 14.3225H44.7242V16.7096H16.1088L16.1077 14.3225ZM20.8781 19.0967V20.2903C20.0053 20.2903 19.1981 20.5433 18.4935 20.9539V19.0967H20.8781ZM18.4935 25.0645C18.4935 23.748 19.563 22.6774 20.8781 22.6774V27.4516C19.563 27.4516 18.4935 26.3809 18.4935 25.0645ZM23.2627 27.4516V19.0967H37.5703V27.4516C37.5703 29.4257 35.9655 31.0322 33.9934 31.0322H26.8396C24.8675 31.0322 23.2627 29.4257 23.2627 27.4516V27.4516ZM3.24029 32.2974C3.86744 31.3067 5.42698 30.4211 7.21544 30.0404C7.89625 29.8959 8.53294 29.8327 9.1124 29.8327C10.7995 29.8327 12.0014 30.3674 12.3924 30.9785L12.5093 31.3413C12.5379 31.586 12.4747 31.8557 12.2851 32.1553C11.658 33.146 10.0984 34.0316 8.30997 34.4123C5.84906 34.9339 3.99025 34.3908 3.29991 33.6616L3.06621 33.3107C3.05191 33.2749 3.02329 33.2415 3.01375 33.2056C2.95175 32.9383 3.02806 32.6339 3.24029 32.2974V32.2974ZM6.45713 36.9987C7.20828 36.9987 7.99878 36.9176 8.80597 36.7457C10.722 36.3387 12.3853 35.4925 13.4941 34.404L15.7631 41.4567C15.2313 42.2265 14.9165 43.1563 14.9165 44.1612V51.0766L5.49256 36.9474C5.80613 36.9785 6.12686 36.9987 6.45713 36.9987V36.9987ZM10.1473 56.0967C10.1473 53.9257 10.499 51.8131 11.1918 49.7924L14.9165 55.377V56.9179C14.3967 56.4524 13.9102 55.9463 13.4858 55.3806L11.5781 56.8128C14.0414 60.1011 17.9641 62.0645 22.0704 62.0645H25.6473V66.8387H20.8781C14.9607 66.8387 10.1473 62.0191 10.1473 56.0967V56.0967ZM23.2627 71.6128H19.6858C18.3706 71.6128 17.3012 70.5422 17.3012 69.2257V68.7173C18.4398 69.0408 19.6369 69.2257 20.8781 69.2257H29.2242C29.2242 70.5422 28.1547 71.6128 26.8396 71.6128H23.2627ZM53.31 59.6774C50.675 59.6774 48.3059 58.2117 47.1267 55.852L45.9165 53.4279V48.9354H43.5319V71.6128H36.378V69.0061C37.7623 68.512 38.7627 67.1991 38.7627 65.6451V63.258C38.7627 61.704 37.7623 60.3911 36.378 59.897V37.315C42.8439 39.0576 48.2653 43.6265 51.0553 49.7697L51.2354 50.1648L50.6953 54.7647L53.0632 55.0428L55.3226 35.8064H60.2242V52.7572C60.2242 56.5729 57.1218 59.6774 53.31 59.6774Z" fill="#F0F0F0"/>
</svg>
